REM DIRINDEX 1\2,1\3,1\4,1\5,1\6
REM DIRNAME folder01,folder02,folder03,folder04,folder05,folder06
TITLE ""
FILE "CD2-36.mp3" MP3
  TRACK 01 AUDIO
    TITLE "6:cjc091_2251"
    INDEX 01 00:00:00
  TRACK 02 AUDIO
    TITLE "0:"
    INDEX 01 00:02:02
  TRACK 03 AUDIO
    TITLE "2:cjc091_2252"
    INDEX 01 00:03:17
  TRACK 04 AUDIO
    TITLE "0:"
    INDEX 01 00:05:34
  TRACK 05 AUDIO
    TITLE "3:cjc091_2253"
    INDEX 01 00:05:56
  TRACK 06 AUDIO
    TITLE "0:"
    INDEX 01 00:07:37
  TRACK 07 AUDIO
    TITLE "4:cjc091_2254"
    INDEX 01 00:07:60
  TRACK 08 AUDIO
    TITLE "4:cjc091_2255"
    INDEX 01 00:10:04
  TRACK 09 AUDIO
    TITLE "4:cjc091_2256"
    INDEX 01 00:11:42
  TRACK 10 AUDIO
    TITLE "4:cjc091_2257"
    INDEX 01 00:12:52
  TRACK 11 AUDIO
    TITLE "0:"
    INDEX 01 00:14:43
  TRACK 12 AUDIO
    TITLE "2:cjc091_2258"
    INDEX 01 00:15:60
  TRACK 13 AUDIO
    TITLE "0:"
    INDEX 01 00:17:39
  TRACK 14 AUDIO
    TITLE "3:cjc091_2259"
    INDEX 01 00:17:63
  TRACK 15 AUDIO
    TITLE "0:"
    INDEX 01 00:19:52
  TRACK 16 AUDIO
    TITLE "4:cjc091_2260"
    INDEX 01 00:19:73
  TRACK 17 AUDIO
    TITLE "4:cjc091_2261"
    INDEX 01 00:22:11
  TRACK 18 AUDIO
    TITLE "4:cjc091_2262"
    INDEX 01 00:24:33
  TRACK 19 AUDIO
    TITLE "4:cjc091_2263"
    INDEX 01 00:27:63
  TRACK 20 AUDIO
    TITLE "0:"
    INDEX 01 00:30:48
  TRACK 21 AUDIO
    TITLE "2:cjc091_2264"
    INDEX 01 00:31:59
  TRACK 22 AUDIO
    TITLE "0:"
    INDEX 01 00:33:09
  TRACK 23 AUDIO
    TITLE "3:cjc091_2265"
    INDEX 01 00:33:24
  TRACK 24 AUDIO
    TITLE "0:"
    INDEX 01 00:35:10
  TRACK 25 AUDIO
    TITLE "4:cjc091_2266"
    INDEX 01 00:35:31
  TRACK 26 AUDIO
    TITLE "4:cjc091_2267"
    INDEX 01 00:37:48
  TRACK 27 AUDIO
    TITLE "4:cjc091_2268"
    INDEX 01 00:39:70
  TRACK 28 AUDIO
    TITLE "0:"
    INDEX 01 00:42:63
  TRACK 29 AUDIO
    TITLE "2:cjc091_2269"
    INDEX 01 00:43:72
  TRACK 30 AUDIO
    TITLE "0:"
    INDEX 01 00:45:47
  TRACK 31 AUDIO
    TITLE "3:cjc091_2270"
    INDEX 01 00:45:59
  TRACK 32 AUDIO
    TITLE "0:"
    INDEX 01 00:47:19
  TRACK 33 AUDIO
    TITLE "4:cjc091_2271"
    INDEX 01 00:47:40
  TRACK 34 AUDIO
    TITLE "4:cjc091_2272"
    INDEX 01 00:50:11
  TRACK 35 AUDIO
    TITLE "4:cjc091_2273"
    INDEX 01 00:53:31
  TRACK 36 AUDIO
    TITLE "4:cjc091_2274"
    INDEX 01 00:54:60
  TRACK 37 AUDIO
    TITLE "0:"
    INDEX 01 00:56:37
  TRACK 38 AUDIO
    TITLE "2:cjc091_2275"
    INDEX 01 00:57:45
  TRACK 39 AUDIO
    TITLE "0:"
    INDEX 01 00:59:69
  TRACK 40 AUDIO
    TITLE "3:cjc091_2276"
    INDEX 01 01:00:12
  TRACK 41 AUDIO
    TITLE "0:"
    INDEX 01 01:01:64
  TRACK 42 AUDIO
    TITLE "4:cjc091_2277"
    INDEX 01 01:02:10
  TRACK 43 AUDIO
    TITLE "4:cjc091_2278"
    INDEX 01 01:05:01
  TRACK 44 AUDIO
    TITLE "4:cjc091_2279"
    INDEX 01 01:07:31
  TRACK 45 AUDIO
    TITLE "0:"
    INDEX 01 01:09:73
  TRACK 46 AUDIO
    TITLE "2:cjc091_2280"
    INDEX 01 01:11:09
  TRACK 47 AUDIO
    TITLE "0:"
    INDEX 01 01:12:34
  TRACK 48 AUDIO
    TITLE "3:cjc091_2281"
    INDEX 01 01:12:42
  TRACK 49 AUDIO
    TITLE "0:"
    INDEX 01 01:13:55
  TRACK 50 AUDIO
    TITLE "4:cjc091_2282"
    INDEX 01 01:13:71
  TRACK 51 AUDIO
    TITLE "4:cjc091_2283"
    INDEX 01 01:17:00
  TRACK 52 AUDIO
    TITLE "4:cjc091_2284"
    INDEX 01 01:19:74
  TRACK 53 AUDIO
    TITLE "0:"
    INDEX 01 01:21:43
  TRACK 54 AUDIO
    TITLE "2:cjc091_2285"
    INDEX 01 01:22:54
  TRACK 55 AUDIO
    TITLE "0:"
    INDEX 01 01:24:63
  TRACK 56 AUDIO
    TITLE "3:cjc091_2286"
    INDEX 01 01:25:11
  TRACK 57 AUDIO
    TITLE "0:"
    INDEX 01 01:26:70
  TRACK 58 AUDIO
    TITLE "4:cjc091_2287"
    INDEX 01 01:27:14
  TRACK 59 AUDIO
    TITLE "4:cjc091_2288"
    INDEX 01 01:29:31
  TRACK 60 AUDIO
    TITLE "4:cjc091_2289"
    INDEX 01 01:33:36
  TRACK 61 AUDIO
    TITLE "0:"
    INDEX 01 01:36:52
  TRACK 62 AUDIO
    TITLE "2:cjc091_2290"
    INDEX 01 01:37:62
  TRACK 63 AUDIO
    TITLE "0:"
    INDEX 01 01:39:21
  TRACK 64 AUDIO
    TITLE "3:cjc091_2291"
    INDEX 01 01:39:39
  TRACK 65 AUDIO
    TITLE "0:"
    INDEX 01 01:41:18
  TRACK 66 AUDIO
    TITLE "4:cjc091_2292"
    INDEX 01 01:41:44
  TRACK 67 AUDIO
    TITLE "4:cjc091_2293"
    INDEX 01 01:43:31
  TRACK 68 AUDIO
    TITLE "4:cjc091_2294"
    INDEX 01 01:44:68
  TRACK 69 AUDIO
    TITLE "0:"
    INDEX 01 01:48:52
  TRACK 70 AUDIO
    TITLE "2:cjc091_2295"
    INDEX 01 01:49:63
  TRACK 71 AUDIO
    TITLE "0:"
    INDEX 01 01:51:25
  TRACK 72 AUDIO
    TITLE "3:cjc091_2296"
    INDEX 01 01:51:50
  TRACK 73 AUDIO
    TITLE "0:"
    INDEX 01 01:54:07
  TRACK 74 AUDIO
    TITLE "4:cjc091_2297"
    INDEX 01 01:54:27
  TRACK 75 AUDIO
    TITLE "4:cjc091_2298"
    INDEX 01 01:57:58
  TRACK 76 AUDIO
    TITLE "4:cjc091_2299"
    INDEX 01 01:58:62
  TRACK 77 AUDIO
    TITLE "4:cjc091_2300"
    INDEX 01 02:01:11
  TRACK 78 AUDIO
    TITLE "0:"
    INDEX 01 02:02:73
  TRACK 79 AUDIO
    TITLE "2:cjc091_2301"
    INDEX 01 02:04:08
  TRACK 80 AUDIO
    TITLE "0:"
    INDEX 01 02:05:34
  TRACK 81 AUDIO
    TITLE "3:cjc091_2302"
    INDEX 01 02:05:56
  TRACK 82 AUDIO
    TITLE "0:"
    INDEX 01 02:07:18
  TRACK 83 AUDIO
    TITLE "4:cjc091_2303"
    INDEX 01 02:07:41
  TRACK 84 AUDIO
    TITLE "4:cjc091_2304"
    INDEX 01 02:12:09
  TRACK 85 AUDIO
    TITLE "0:"
    INDEX 01 02:15:13
